<svg width="40" height="40" fill="none" xmlns="http://www.w3.org/2000/svg"><g clip-path="url(#clip0_237_63)" fill="#344D57"><path d="M30.21 23.782a5.048 5.048 0 00-5.042 5.041 5.048 5.048 0 005.042 5.042 5.047 5.047 0 005.042-5.042 5.048 5.048 0 00-5.042-5.041zm0 7.563a2.524 2.524 0 01-2.521-2.521c0-1.39 1.13-2.522 2.521-2.522 1.39 0 2.521 1.131 2.521 2.521s-1.13 2.521-2.521 2.521zm-17.227-7.563a5.048 5.048 0 00-5.042 5.041 5.048 5.048 0 005.042 5.042 5.048 5.048 0 005.043-5.042 5.048 5.048 0 00-5.043-5.041zm0 7.563a2.524 2.524 0 01-2.52-2.521c0-1.39 1.13-2.522 2.52-2.522 1.39 0 2.521 1.131 2.521 2.521s-1.13 2.521-2.52 2.521zM33.605 9.35a1.261 1.261 0 00-1.126-.695H25.84v2.522h5.862l3.432 6.826 2.253-1.133-3.782-7.52z"/><path d="M26.428 27.605h-9.537v2.521h9.537v-2.52zm-17.227 0h-4.37a1.26 1.26 0 100 2.521h4.37a1.26 1.26 0 100-2.52zM39.735 19.9l-2.48-3.194a1.259 1.259 0 00-.995-.488H27.1V7.395a1.26 1.26 0 00-1.26-1.26H4.832a1.26 1.26 0 100 2.52H24.58v8.824c0 .696.564 1.26 1.26 1.26h9.803l1.836 2.365v6.5H33.99a1.26 1.26 0 100 2.522h4.748a1.26 1.26 0 001.26-1.26v-8.194c0-.28-.093-.552-.264-.773zM9.117 21.218H3.32a1.26 1.26 0 100 2.521h5.798a1.26 1.26 0 100-2.52zm2.9-4.958H1.26a1.26 1.26 0 100 2.521h10.757a1.26 1.26 0 100-2.52z"/><path d="M14.075 11.303H3.32a1.26 1.26 0 100 2.52h10.756a1.26 1.26 0 100-2.52z"/></g><defs><clipPath id="clip0_237_63"><path fill="#fff" d="M0 0h40v40H0z"/></clipPath></defs></svg>