<svg width="18" height="18" fill="none" xmlns="http://www.w3.org/2000/svg"><path d="M14.752 4.888a.562.562 0 00-.535-.388h-1.28V2.531a.562.562 0 00-.562-.562h-6.75a.562.562 0 00-.563.562V4.5h-1.28a.56.56 0 00-.534.388l-1.28 3.936v6.645c0 .31.252.562.563.562H15.47a.562.562 0 00.562-.562V8.824l-1.28-3.936zM6.328 3.234h5.344V4.5H6.328V3.234zm8.438 11.532H3.234V9.025l1.06-3.26h9.412l1.06 3.26v5.74zm-3.305-4.711H9.562V8.156a.141.141 0 00-.14-.14h-.844a.141.141 0 00-.14.14v1.899h-1.9a.141.141 0 00-.14.14v.844c0 .077.063.14.14.14h1.899v1.9c0 .076.063.14.14.14h.844a.14.14 0 00.14-.14v-1.9h1.899a.14.14 0 00.14-.14v-.844a.141.141 0 00-.14-.14z" fill="#1E3944"/></svg>